<?xml version="1.0"?>
<svg xmlns="http://www.w3.org/2000/svg" xmlns:xlink="http://www.w3.org/1999/xlink" version="1.1" id="Capa_1" x="0px" y="0px" viewBox="0 0 436.907 436.907" style="enable-background:new 0 0 436.907 436.907;" xml:space="preserve" width="512px" height="512px" class=""><g><circle style="fill:#F0E3DF" cx="218.453" cy="218.453" r="218.453" data-original="#E05B49" class="" data-old_color="#E05B49"/><path style="fill:#BE9B89" d="M436.907,218.453c0-1.128-0.068-2.239-0.085-3.363L312.185,90.453H162.032  l-37.31,31.236v224.764l90.368,90.368c1.124,0.017,2.235,0.085,3.363,0.085C339.102,436.907,436.907,339.102,436.907,218.453z" data-original="#000000" class="" data-old_color="#000000"/><polyline style="fill:#FFFFFF" points="124.722,121.689 124.722,346.453 312.185,346.453 312.185,90.453 162.032,90.453 " data-original="#EBF0F3" class="active-path" data-old_color="#EBF0F3"/><polygon style="fill:#D6CAC7" points="162.032,90.453 162.032,121.689 124.722,121.689 " data-original="#D5D6DB" class="" data-old_color="#D5D6DB"/><rect x="234.906" y="140.052" style="fill:#57555A" width="60.757" height="71.438" data-original="#27A2DB" class="" data-old_color="#27A2DB"/><g>
	<rect x="145.101" y="139.902" style="fill:#D6CAC7" width="78.541" height="9.977" data-original="#D5D6DB" class="" data-old_color="#D5D6DB"/>
	<rect x="145.101" y="160.758" style="fill:#D6CAC7" width="78.541" height="9.977" data-original="#D5D6DB" class="" data-old_color="#D5D6DB"/>
	<rect x="145.101" y="181.579" style="fill:#D6CAC7" width="78.541" height="9.977" data-original="#D5D6DB" class="" data-old_color="#D5D6DB"/>
	<rect x="145.101" y="202.4" style="fill:#D6CAC7" width="78.541" height="9.977" data-original="#D5D6DB" class="" data-old_color="#D5D6DB"/>
	<rect x="145.101" y="223.188" style="fill:#D6CAC7" width="150.562" height="9.977" data-original="#D5D6DB" class="" data-old_color="#D5D6DB"/>
	<rect x="145.101" y="244.043" style="fill:#D6CAC7" width="150.562" height="9.977" data-original="#D5D6DB" class="" data-old_color="#D5D6DB"/>
	<rect x="145.101" y="264.864" style="fill:#D6CAC7" width="150.562" height="9.977" data-original="#D5D6DB" class="" data-old_color="#D5D6DB"/>
	<rect x="145.101" y="285.686" style="fill:#D6CAC7" width="150.562" height="9.977" data-original="#D5D6DB" class="" data-old_color="#D5D6DB"/>
	<rect x="145.101" y="306.507" style="fill:#D6CAC7" width="150.562" height="9.977" data-original="#D5D6DB" class="" data-old_color="#D5D6DB"/>
</g></g> </svg>
